<svg preserveAspectRatio="none" width="100%" height="100%" overflow="visible" style="display: block;" viewBox="0 0 80 80" fill="none" xmlns="http://www.w3.org/2000/svg">
<g id="Icon">
  <circle cx="40" cy="40" r="39.75" fill="#FEF5DE" stroke="#C4C6CD" stroke-width="0.5"/>
  <g transform="translate(27.5, 27.5)">
    <path
      fill="none"
      stroke="#512906"
      stroke-width="1.875"
      stroke-linecap="round"
      stroke-linejoin="round"
      d="M 4.570898192281184 11.252123165585411 L 2.733460001566204 15.38698546105415 C 0.4135377766843873 20.60431054944965 -0.7451738034861737 23.2129724976209 0.5210337977947881 24.47918012693171 C 1.7872413990757499 25.74538775624252 4.393403591680612 24.58542602209723 9.61072856458097 22.266753613422555 L 13.748091099613857 20.42681505088016 C 16.894235665953765 19.028111923476683 18.467932789762205 18.329386485609394 18.717924419741333 16.980681636881396 C 18.96791604972046 15.631976788153398 17.75045661633717 14.414517569955153 15.315538233842108 11.980849001121578 L 13.018116008700622 9.682176261532993 C 10.584447493740802 7.247257825136506 9.366987706466789 6.029798271673359 8.018282887594866 6.281039867878568 C 6.669578068722944 6.531031503391724 5.970851156257026 8.104729258063356 4.5721480598164295 11.250873894048995 M 5.623362650333554 10.624644350989609 L 14.373070165248766 19.374351463569287 M 3.1234466858071586 16.87443514568938 L 8.123278912873191 21.874267781449195 M 17.49796549342331 7.499748953639724 L 21.2478386951798 3.749874476819862 M 24.84271759408929 4.999832635759816 L 24.686472827680564 4.999832635759816 M 23.592759462819473 14.062029288074482 L 23.436514696410747 14.062029288074482 M 20.15537460182747 0.3124895397349885 L 19.99788175596295 0.3124895397349885 M 11.405670067044674 1.5624476986749425 L 11.24817483707422 1.5624476986749425 M 15.245540883656558 0 C 15.745524143614816 0.8337220866487108 16.14301133687517 2.999899551654565 13.749341563175586 4.999832635759816 M 24.997713088989258 9.753424076857474 C 24.16524096283508 9.253440805831161 21.997814795795986 8.854703587202158 19.99788175596295 11.249623430459586 M 24.997713088989258 4.999832635759816 C 24.997713088989258 5.082710017639642 24.96479041604554 5.16219319159857 24.906187262230972 5.220796346710425 C 24.847584108416406 5.2793995018222795 24.768100936216985 5.3123221754948045 24.685223556171803 5.3123221754948045 C 24.60234617612662 5.3123221754948045 24.5228630039272 5.2793995018222795 24.464259850112633 5.220796346710425 C 24.405656696298067 5.16219319159857 24.372734023354347 5.082710017639642 24.372734023354347 4.999832635759816 C 24.372734023354347 4.91695525387999 24.405656696298067 4.837472079921062 24.464259850112633 4.778868924809207 C 24.5228630039272 4.7202657696973525 24.60234617612662 4.6873430960248275 24.685223556171803 4.6873430960248275 C 24.768100936216985 4.6873430960248275 24.847584108416406 4.7202657696973525 24.906187262230972 4.778868924809207 C 24.96479041604554 4.837472079921062 24.997713088989258 4.91695525387999 24.997713088989258 4.999832635759816 Z M 23.7490042292282 14.062029288074482 C 23.7490042292282 14.14490666995431 23.71608155628448 14.224389843913238 23.657478402469913 14.282992999025092 C 23.598875248655347 14.341596154136946 23.51939207645593 14.37451882780947 23.436514696410747 14.37451882780947 C 23.353637316365564 14.37451882780947 23.274154144166143 14.341596154136946 23.215550990351577 14.282992999025092 C 23.15694783653701 14.224389843913238 23.12402516359329 14.14490666995431 23.12402516359329 14.062029288074482 C 23.12402516359329 13.979151906194655 23.15694783653701 13.899668732235726 23.215550990351577 13.841065577123873 C 23.274154144166143 13.782462422012019 23.353637316365564 13.749539748339494 23.436514696410747 13.749539748339494 C 23.51939207645593 13.749539748339494 23.598875248655347 13.782462422012019 23.657478402469913 13.841065577123873 C 23.71608155628448 13.899668732235726 23.7490042292282 13.979151906194655 23.7490042292282 14.062029288074482 Z M 20.31037009672744 0.3124895397349885 C 20.31037009672744 0.39536692161481507 20.27744742378372 0.47484979756049456 20.218844269969154 0.5334529526723492 C 20.160241116154587 0.5920561077842038 20.080759136008133 0.624979079469977 19.99788175596295 0.624979079469977 C 19.915004375917768 0.624979079469977 19.835521203718347 0.5920561077842038 19.77691804990378 0.5334529526723492 C 19.718314896089215 0.47484979756049456 19.685392223145495 0.39536692161481507 19.685392223145495 0.3124895397349885 C 19.685392223145495 0.22961215785516192 19.718314896089215 0.15012928190948246 19.77691804990378 0.09152612679762784 C 19.835521203718347 0.03292297168577322 19.915004375917768 -2.7754646557464157e-16 19.99788175596295 0 C 20.080759136008133 -2.7754646557464157e-16 20.160241116154587 0.03292297168577322 20.218844269969154 0.09152612679762784 C 20.27744742378372 0.15012928190948246 20.31037009672744 0.22961215785516192 20.31037009672744 0.3124895397349885 Z M 11.560664369891676 1.5624476986749425 C 11.560664369891676 1.645325080554769 11.527741696947954 1.7248079565004486 11.469138543133388 1.7834111116123033 C 11.410535389318822 1.842014266724158 11.331052217119403 1.874937238409931 11.24817483707422 1.874937238409931 C 11.165297457029038 1.874937238409931 11.085814284829619 1.842014266724158 11.027211131015052 1.7834111116123033 C 10.968607977200486 1.7248079565004486 10.935685304256765 1.645325080554769 10.935685304256765 1.5624476986749425 C 10.935685304256765 1.479570316795116 10.968607977200486 1.4000874408494364 11.027211131015052 1.3414842857375817 C 11.085814284829619 1.282881130625727 11.165297457029038 1.249958158939954 11.24817483707422 1.249958158939954 C 11.331052217119403 1.249958158939954 11.410535389318822 1.282881130625727 11.469138543133388 1.3414842857375817 C 11.527741696947954 1.4000874408494364 11.560664369891676 1.479570316795116 11.560664369891676 1.5624476986749425 Z"
    />
  </g>
</g>
</svg>
