<svg preserveAspectRatio="none" width="100%" height="100%" overflow="visible" style="display: block;" viewBox="0 0 80 80" fill="none" xmlns="http://www.w3.org/2000/svg">
<g id="Icon">
<circle id="Ellipse 1" cx="40" cy="40" r="39.75" fill="var(--fill-0, #FEF5DE)" stroke="var(--stroke-0, #C4C6CD)" stroke-width="0.5"/>
<path id="Vector" d="M53.9643 27H44.6429C43.8389 27 43.046 27.1883 42.3269 27.5499C41.6079 27.9115 40.9824 28.4365 40.5 29.0833C40.0176 28.4365 39.3921 27.9115 38.6731 27.5499C37.954 27.1883 37.1611 27 36.3571 27H27.0357C26.761 27 26.4976 27.1097 26.3034 27.3051C26.1091 27.5004 26 27.7654 26 28.0417V46.7917C26 47.0679 26.1091 47.3329 26.3034 47.5282C26.4976 47.7236 26.761 47.8333 27.0357 47.8333H36.3571C37.1812 47.8333 37.9715 48.1626 38.5542 48.7486C39.1369 49.3347 39.4643 50.1295 39.4643 50.9583C39.4643 51.2346 39.5734 51.4996 39.7676 51.6949C39.9619 51.8903 40.2253 52 40.5 52C40.7747 52 41.0381 51.8903 41.2324 51.6949C41.4266 51.4996 41.5357 51.2346 41.5357 50.9583C41.5357 50.1295 41.8631 49.3347 42.4458 48.7486C43.0285 48.1626 43.8188 47.8333 44.6429 47.8333H53.9643C54.239 47.8333 54.5024 47.7236 54.6966 47.5282C54.8909 47.3329 55 47.0679 55 46.7917V28.0417C55 27.7654 54.8909 27.5004 54.6966 27.3051C54.5024 27.1097 54.239 27 53.9643 27ZM36.3571 45.75H28.0714V29.0833H36.3571C37.1812 29.0833 37.9715 29.4126 38.5542 29.9986C39.1369 30.5847 39.4643 31.3795 39.4643 32.2083V46.7917C38.5688 46.1138 37.4779 45.7481 36.3571 45.75ZM52.9286 45.75H44.6429C43.5221 45.7481 42.4312 46.1138 41.5357 46.7917V32.2083C41.5357 31.3795 41.8631 30.5847 42.4458 29.9986C43.0285 29.4126 43.8188 29.0833 44.6429 29.0833H52.9286V45.75ZM44.6429 32.2083H49.8214C50.0961 32.2083 50.3596 32.3181 50.5538 32.5134C50.748 32.7088 50.8571 32.9737 50.8571 33.25C50.8571 33.5263 50.748 33.7912 50.5538 33.9866C50.3596 34.1819 50.0961 34.2917 49.8214 34.2917H44.6429C44.3682 34.2917 44.1047 34.1819 43.9105 33.9866C43.7163 33.7912 43.6071 33.5263 43.6071 33.25C43.6071 32.9737 43.7163 32.7088 43.9105 32.5134C44.1047 32.3181 44.3682 32.2083 44.6429 32.2083ZM50.8571 37.4167C50.8571 37.6929 50.748 37.9579 50.5538 38.1532C50.3596 38.3486 50.0961 38.4583 49.8214 38.4583H44.6429C44.3682 38.4583 44.1047 38.3486 43.9105 38.1532C43.7163 37.9579 43.6071 37.6929 43.6071 37.4167C43.6071 37.1404 43.7163 36.8754 43.9105 36.6801C44.1047 36.4847 44.3682 36.375 44.6429 36.375H49.8214C50.0961 36.375 50.3596 36.4847 50.5538 36.6801C50.748 36.8754 50.8571 37.1404 50.8571 37.4167ZM50.8571 41.5833C50.8571 41.8596 50.748 42.1246 50.5538 42.3199C50.3596 42.5153 50.0961 42.625 49.8214 42.625H44.6429C44.3682 42.625 44.1047 42.5153 43.9105 42.3199C43.7163 42.1246 43.6071 41.8596 43.6071 41.5833C43.6071 41.3071 43.7163 41.0421 43.9105 40.8468C44.1047 40.6514 44.3682 40.5417 44.6429 40.5417H49.8214C50.0961 40.5417 50.3596 40.6514 50.5538 40.8468C50.748 41.0421 50.8571 41.3071 50.8571 41.5833Z" fill="var(--fill-0, #512906)"/>
</g>
</svg>
